<svg xmlns="http://www.w3.org/2000/svg" width="24" height="24" viewBox="0 0 24 24" fill="white">
  <path d="M12 2C6.477 2 2 6.477 2 12c0 4.42 2.865 8.162 6.839 9.489.5.092.682-.217.682-.483 0-.237-.008-.866-.013-1.7-2.782.605-3.37-1.34-3.37-1.34-.455-1.157-1.11-1.465-1.11-1.465-.908-.62.069-.608.069-.608 1.004.071 1.532 1.03 1.532 1.03.891 1.529 2.341 1.089 2.91.833.091-.647.349-1.088.635-1.338-2.22-.253-4.555-1.11-4.555-4.943 0-1.091.39-1.984 1.03-2.682-.103-.254-.447-1.27.097-2.646 0 0 .84-.27 2.75 1.025A9.56 9.56 0 0112 6.836c.85.004 1.705.114 2.504.336 1.909-1.296 2.747-1.025 2.747-1.025.546 1.376.202 2.394.1 2.646.64.699 1.026 1.591 1.026 2.682 0 3.841-2.337 4.687-4.565 4.934.359.31.678.92.678 1.852 0 1.336-.012 2.415-.012 2.743 0 .267.18.578.688.48C19.137 20.16 22 16.42 22 12c0-5.523-4.477-10-10-10z"/>
</svg> 