<svg xmlns="http://www.w3.org/2000/svg" width="130" height="32" viewBox="0 0 130 32" fill="none">
  <path d="M16 0H48C58.4934 0 67 8.5066 67 19V19C67 29.4934 58.4934 38 48 38H16C5.50659 38 -3.05176e-05 29.4934 -3.05176e-05 19V19C-3.05176e-05 8.5066 5.50659 0 16 0Z" transform="scale(0.8)" fill="#009EE3"/>
  <path d="M22.1641 18.9219C22.1641 22.1484 19.7266 24.2578 16.5781 24.2578C15.1406 24.2578 13.9609 23.8984 13.0156 23.125V27.9062H10.3359V13.7891H12.8359L12.9688 14.9062C13.9375 13.9844 15.1953 13.5469 16.6562 13.5469C19.75 13.5469 22.1641 15.6953 22.1641 18.9219ZM19.4375 18.9219C19.4375 16.9766 18.0547 15.8516 16.2422 15.8516C15.0391 15.8516 14.0391 16.3672 13.0156 17.3359V20.8516C14 21.6641 15.0703 22.0469 16.2422 22.0469C18.0547 22.0469 19.4375 20.875 19.4375 18.9219Z" transform="scale(0.8)" fill="white"/>
  <path d="M34.0906 20.3125C34.0906 22.8359 32.0359 24.2578 29.3172 24.2578C27.8328 24.2578 26.4969 23.8438 25.2859 23.0391L26.4891 21.0703C27.3719 21.6328 28.3094 21.9531 29.2859 21.9531C30.3797 21.9531 31.3641 21.5156 31.3641 20.625C31.3641 19.75 30.4578 19.3672 29.2234 19C27.3094 18.3906 25.5359 17.5312 25.5359 15.3125C25.5359 13 27.5672 11.75 30.0281 11.75C31.5125 11.75 32.7625 12.1562 33.7781 12.8516L32.6328 14.7266C31.8797 14.25 30.9734 14.0078 30.1875 14.0078C29.1406 14.0078 28.3328 14.4141 28.3328 15.1562C28.3328 15.9531 29.2469 16.25 30.6563 16.6641C32.6797 17.3047 34.0906 18.1875 34.0906 20.3125Z" transform="scale(0.8)" fill="white"/>
  <path d="M41.6875 23.0547C41.0312 23.7891 40.0625 24.2578 38.8125 24.2578C36.7812 24.2578 35.2656 22.9062 35.2656 20.5703C35.2656 18.2109 36.8594 16.9219 39.375 16.9219C39.9219 16.9219 40.5156 16.9844 41.1016 17.1016V16.7344C41.1016 15.625 40.375 14.9375 38.9375 14.9375C37.875 14.9375 36.875 15.2109 36.0312 15.6953L35.2031 13.7188C36.2969 13.0781 37.7031 12.7188 39.0781 12.7188C42.0469 12.7188 43.625 14.1641 43.625 16.8438V20.4219C43.625 21.5078 43.6953 22.7734 43.8047 24H41.4609L41.6875 23.0547ZM41.1562 19.9297V18.9062C40.6953 18.7891 40.1641 18.7266 39.5234 18.7266C38.1797 18.7266 37.5469 19.4141 37.5469 20.2266C37.5469 21.0234 38.2344 21.5391 39.2422 21.5391C40.0547 21.5391 40.7422 21.1953 41.1562 19.9297Z" transform="scale(0.8)" fill="white"/>
  <path d="M49.1563 24H46.4766V12.9766H48.9766L49.1094 14.3516C50 13.3516 51.2188 12.7188 52.6563 12.7188C54.8906 12.7188 56.2656 14.3672 56.2656 17.0312V24H53.5859V17.5547C53.5859 16.0703 52.8359 15.2969 51.5703 15.2969C50.4688 15.2969 49.7188 15.8359 49.1563 16.6797V24Z" transform="scale(0.8)" fill="white"/>
  <path d="M66.9922 23.0547C66.3359 23.7891 65.3672 24.2578 64.1172 24.2578C62.0859 24.2578 60.5703 22.9062 60.5703 20.5703C60.5703 18.2109 62.1641 16.9219 64.6797 16.9219C65.2266 16.9219 65.8203 16.9844 66.4062 17.1016V16.7344C66.4062 15.625 65.6797 14.9375 64.2422 14.9375C63.1797 14.9375 62.1797 15.2109 61.3359 15.6953L60.5078 13.7188C61.6016 13.0781 63.0078 12.7188 64.3828 12.7188C67.3516 12.7188 68.9297 14.1641 68.9297 16.8438V20.4219C68.9297 21.5078 69 22.7734 69.1094 24H66.7656L66.9922 23.0547ZM66.4609 19.9297V18.9062C66 18.7891 65.4688 18.7266 64.8281 18.7266C63.4844 18.7266 62.8516 19.4141 62.8516 20.2266C62.8516 21.0234 63.5391 21.5391 64.5469 21.5391C65.3594 21.5391 66.0469 21.1953 66.4609 19.9297Z" transform="scale(0.8)" fill="white"/>
  <path d="M76.4297 24H73.75V12.9766H76.4297V24ZM75.0859 11.2344C74.1641 11.2344 73.3984 10.5078 73.3984 9.625C73.3984 8.73438 74.1641 8 75.0859 8C76.0078 8 76.7578 8.73438 76.7578 9.625C76.7578 10.5078 76.0078 11.2344 75.0859 11.2344Z" transform="scale(0.8)" fill="white"/>
  <path d="M83.2031 24H80.5234V12.9766H83.0234L83.1562 14.3516C84.0469 13.3516 85.2656 12.7188 86.7031 12.7188C88.9375 12.7188 90.3125 14.3672 90.3125 17.0312V24H87.6328V17.5547C87.6328 16.0703 86.8828 15.2969 85.6172 15.2969C84.5156 15.2969 83.7656 15.8359 83.2031 16.6797V24Z" transform="scale(0.8)" fill="white"/>
  <path d="M101.039 23.0547C100.383 23.7891 99.4141 24.2578 98.1641 24.2578C96.1328 24.2578 94.6172 22.9062 94.6172 20.5703C94.6172 18.2109 96.2109 16.9219 98.7266 16.9219C99.2734 16.9219 99.8672 16.9844 100.453 17.1016V16.7344C100.453 15.625 99.7266 14.9375 98.2891 14.9375C97.2266 14.9375 96.2266 15.2109 95.3828 15.6953L94.5547 13.7188C95.6484 13.0781 97.0547 12.7188 98.4297 12.7188C101.398 12.7188 102.977 14.1641 102.977 16.8438V20.4219C102.977 21.5078 103.047 22.7734 103.156 24H100.812L101.039 23.0547ZM100.508 19.9297V18.9062C100.047 18.7891 99.5156 18.7266 98.875 18.7266C97.5312 18.7266 96.8984 19.4141 96.8984 20.2266C96.8984 21.0234 97.5859 21.5391 98.5938 21.5391C99.4062 21.5391 100.094 21.1953 100.508 19.9297Z" transform="scale(0.8)" fill="white"/>
  <path d="M108.828 24H106.148V8.32812H108.828V24Z" transform="scale(0.8)" fill="white"/>
  <path d="M119.016 18.5859C119.016 22.125 116.641 24.2578 113.766 24.2578C112.281 24.2578 111.172 23.7344 110.344 22.9062L110.188 24H107.688V8.32812H110.367V14.4062C111.227 13.8125 112.32 13.5469 113.484 13.5469C116.609 13.5469 119.016 15.6406 119.016 18.5859ZM116.289 18.5859C116.289 16.6797 114.922 15.7578 113.141 15.7578C112.023 15.7578 111.141 16.0781 110.367 16.9219V20.5625C111.141 21.3359 112.055 21.6562 113.141 21.6562C114.938 21.6562 116.289 20.75 116.289 18.5859Z" transform="scale(0.8)" fill="white"/>
  <path d="M127.523 24H124.844V12.9766H127.523V24ZM126.18 11.2344C125.258 11.2344 124.492 10.5078 124.492 9.625C124.492 8.73438 125.258 8 126.18 8C127.102 8 127.852 8.73438 127.852 9.625C127.852 10.5078 127.102 11.2344 126.18 11.2344Z" transform="scale(0.8)" fill="white"/>
  <path d="M136.047 15.7422H133.609V20.1172C133.609 21.0391 134.125 21.5547 134.969 21.5547C135.422 21.5547 135.859 21.4531 136.188 21.25L136.781 23.1953C136.258 23.7344 135.359 24.2578 133.906 24.2578C131.578 24.2578 130.93 22.4844 130.93 20.0391V15.7422H129.266V13.7656H130.93V11.1172H133.609V13.7656H136.047V15.7422Z" transform="scale(0.8)" fill="white"/>
  <path d="M146.32 18.4688C146.32 22.0469 143.68 24.2578 140.617 24.2578C137.539 24.2578 134.914 22.0469 134.914 18.4688C134.914 14.875 137.539 12.7188 140.617 12.7188C143.68 12.7188 146.32 14.875 146.32 18.4688ZM143.57 18.4688C143.57 16.3516 142.219 15.1484 140.617 15.1484C139 15.1484 137.664 16.3516 137.664 18.4688C137.664 20.5859 139 21.8359 140.617 21.8359C142.219 21.8359 143.57 20.5859 143.57 18.4688Z" transform="scale(0.8)" fill="white"/>
  <path d="M151.977 24H149.297V12.9766H151.797L151.93 14.3516C152.969 13.3516 154.219 12.7188 155.789 12.7188C158.086 12.7188 159.133 14.1172 159.289 15.6484C160.195 13.9297 161.523 12.7188 163.648 12.7188C166.32 12.7188 167.68 14.4297 167.68 17.4141V24H165V17.6641C165 16.1953 164.578 15.2344 163.133 15.2344C161.992 15.2344 161.164 15.9688 160.711 16.6797C160.695 16.8281 160.695 16.9609 160.695 17.0938V24H158.016V17.6641C158.016 16.1953 157.578 15.2344 156.148 15.2344C155.039 15.2344 154.195 15.8984 153.711 16.6797V24H151.977Z" transform="scale(0.8)" fill="white"/>
</svg> 